<svg width="24" height="24" viewBox="0 0 24 24" fill="none" xmlns="http://www.w3.org/2000/svg">
<g clip-path="url(#clip0_106_1326)">
<path d="M11.0625 16.2178V12.9366H7.78125C7.26343 12.9366 6.84375 12.5169 6.84375 11.9991C6.84375 11.4814 7.26343 11.0616 7.78125 11.0616H11.0625V7.78033C11.0625 7.2627 11.4822 6.84283 12 6.84283C12.5178 6.84283 12.9375 7.2627 12.9375 7.78033V11.0616H16.2188C16.7366 11.0616 17.1562 11.4814 17.1562 11.9991C17.1562 12.5169 16.7366 12.9366 16.2188 12.9366H12.9375V16.2178C12.9375 16.7357 12.5178 17.1553 12 17.1553C11.4822 17.1553 11.0625 16.7357 11.0625 16.2178ZM20.4853 3.51471C18.2188 1.24823 15.2053 0 12 0C8.79474 0 5.78119 1.24823 3.51471 3.51471C1.24823 5.78119 0 8.79474 0 12C0 15.2053 1.24823 18.2188 3.51471 20.4853C5.78119 22.7518 8.79474 24 12 24C14.1943 24 16.3414 23.402 18.2091 22.2706C18.652 22.0023 18.7936 21.4259 18.5253 20.9832C18.2571 20.5402 17.6805 20.3987 17.2377 20.6669C15.663 21.6207 13.8517 22.125 12 22.125C6.41711 22.125 1.875 17.5829 1.875 12C1.875 6.41711 6.41711 1.875 12 1.875C17.5829 1.875 22.125 6.41711 22.125 12C22.125 13.9964 21.5314 15.9395 20.4082 17.6197C20.1204 18.05 20.2361 18.6323 20.6666 18.9201C21.0969 19.2078 21.6791 19.092 21.967 18.6617C23.2969 16.6723 24 14.3687 24 12C24 8.79474 22.7518 5.78119 20.4853 3.51471Z" fill="#28418C"/>
</g>
<defs>
<clipPath id="clip0_106_1326">
<rect width="24" height="24" fill="white"/>
</clipPath>
</defs>
</svg>
