<svg width="32" height="13" viewBox="0 0 32 13" fill="none" xmlns="http://www.w3.org/2000/svg">
<path d="M25.5066 0C22.2445 0 19.5369 2.41806 19.0812 5.55587H17.3364C16.9138 3.81725 15.3447 2.52206 13.4779 2.52206C11.6111 2.52206 10.042 3.81725 9.61944 5.55587H7.82975C7.40719 3.81725 5.83806 2.52206 3.97125 2.52206C1.7815 2.52206 0 4.30363 0 6.49337C0 8.68312 1.7815 10.4647 3.97131 10.4647C5.83813 10.4647 7.40725 9.16956 7.82981 7.43087H9.6195C10.0421 9.1695 11.6112 10.4647 13.478 10.4647C15.3448 10.4647 16.9139 9.16956 17.3365 7.43087H19.0812C19.537 10.5686 22.2446 12.9868 25.5067 12.9868C29.0871 12.9868 32 10.0738 32 6.49337C32 2.91294 29.0871 0 25.5066 0ZM3.97131 8.58969C2.81537 8.58969 1.875 7.64925 1.875 6.49337C1.875 5.3375 2.81537 4.39706 3.97131 4.39706C5.12725 4.39706 6.06756 5.3375 6.06756 6.49337C6.06756 7.64925 5.12719 8.58969 3.97131 8.58969ZM13.4779 8.58969C12.3221 8.58969 11.3816 7.64931 11.3816 6.49337C11.3816 5.33744 12.322 4.39706 13.4779 4.39706C14.6339 4.39706 15.5743 5.33744 15.5743 6.49337C15.5743 7.64931 14.6338 8.58969 13.4779 8.58969ZM25.5066 11.1118C22.9601 11.1118 20.8883 9.04 20.8883 6.49337C20.8883 3.94675 22.96 1.875 25.5066 1.875C28.0532 1.875 30.125 3.94681 30.125 6.49337C30.125 9.03994 28.0532 11.1118 25.5066 11.1118Z" fill="white"/>
<path d="M24.844 6.5082L23.6766 5.43364L22.4067 6.81326L24.945 9.14951L28.3138 5.53589L26.9424 4.25732L24.844 6.5082Z" fill="white"/>
</svg>
