<svg width="32" height="24" viewBox="0 0 32 24" fill="none" xmlns="http://www.w3.org/2000/svg">
<g clip-path="url(#clip0_104_675)">
<path d="M25.5066 6C22.2445 6 19.5369 8.41806 19.0812 11.5559H17.3364C16.9138 9.81725 15.3447 8.52206 13.4779 8.52206C11.6111 8.52206 10.042 9.81725 9.61944 11.5559H7.82975C7.40719 9.81725 5.83806 8.52206 3.97125 8.52206C1.7815 8.52206 0 10.3036 0 12.4934C0 14.6831 1.7815 16.4647 3.97131 16.4647C5.83812 16.4647 7.40725 15.1696 7.82981 13.4309H9.6195C10.0421 15.1695 11.6112 16.4647 13.478 16.4647C15.3448 16.4647 16.9139 15.1696 17.3365 13.4309H19.0812C19.537 16.5686 22.2446 18.9868 25.5067 18.9868C29.0871 18.9868 32 16.0738 32 12.4934C32 8.91294 29.0871 6 25.5066 6ZM3.97131 14.5897C2.81537 14.5897 1.875 13.6492 1.875 12.4934C1.875 11.3375 2.81537 10.3971 3.97131 10.3971C5.12725 10.3971 6.06756 11.3375 6.06756 12.4934C6.06756 13.6492 5.12719 14.5897 3.97131 14.5897ZM13.4779 14.5897C12.3221 14.5897 11.3816 13.6493 11.3816 12.4934C11.3816 11.3374 12.322 10.3971 13.4779 10.3971C14.6339 10.3971 15.5743 11.3374 15.5743 12.4934C15.5743 13.6493 14.6338 14.5897 13.4779 14.5897ZM25.5066 17.1118C22.9601 17.1118 20.8883 15.04 20.8883 12.4934C20.8883 9.94675 22.96 7.875 25.5066 7.875C28.0532 7.875 30.125 9.94681 30.125 12.4934C30.125 15.0399 28.0532 17.1118 25.5066 17.1118Z" fill="#595959"/>
<path d="M24.844 12.5082L23.6766 11.4336L22.4067 12.8133L24.945 15.1495L28.3138 11.5359L26.9424 10.2573L24.844 12.5082Z" fill="#595959"/>
</g>
<defs>
<clipPath id="clip0_104_675">
<rect width="32" height="24" fill="white"/>
</clipPath>
</defs>
</svg>
