<svg width="70" height="70" viewBox="0 0 70 70" fill="none" xmlns="http://www.w3.org/2000/svg">
<g clip-path="url(#clip0_114_870)">
<path d="M51.8459 42.6896L51.126 46.8852C51.0601 47.2692 51.218 47.6573 51.5331 47.8862C51.8482 48.1152 52.2657 48.1455 52.6108 47.9641L56.379 45.9832L60.147 47.9641C60.2968 48.0429 60.4603 48.0816 60.6231 48.0816C60.8354 48.0816 61.0465 48.0157 61.2247 47.8861C61.5399 47.6571 61.6978 47.2692 61.6318 46.8852L60.9122 42.6895L63.9607 39.7179C64.2396 39.446 64.3399 39.0393 64.2195 38.6688C64.0992 38.2983 63.7789 38.0283 63.3934 37.9723L59.1806 37.36L57.2966 33.5427C57.1241 33.1934 56.7684 32.9722 56.3788 32.9722C55.9892 32.9722 55.6335 33.1934 55.461 33.5427L53.5767 37.36L49.364 37.9723C48.9786 38.0283 48.6582 38.2984 48.5379 38.6688C48.4175 39.0391 48.518 39.4459 48.7967 39.7179L51.8459 42.6896ZM54.404 39.3082C54.7372 39.2599 55.0254 39.0505 55.1744 38.7483L56.379 36.3078L57.5834 38.7483C57.7326 39.0505 58.0206 39.2598 58.3538 39.3082L61.0471 39.6996L59.0982 41.5994C58.8569 41.8346 58.747 42.1732 58.804 42.5052L59.264 45.1874L56.8553 43.9211C56.7061 43.8428 56.5427 43.8036 56.379 43.8036C56.2156 43.8036 56.052 43.8428 55.9028 43.9211L53.494 45.1874L53.9541 42.5054C54.0111 42.1732 53.901 41.8346 53.6599 41.5993L51.711 39.6996L54.404 39.3082Z" fill="#28418C"/>
<path d="M8.72574 32.4352L8.00593 36.6308C7.94002 37.0148 8.0979 37.4029 8.41298 37.6318C8.72805 37.8608 9.14575 37.8912 9.49071 37.7098L13.2589 35.7288L17.0269 37.7098C17.1767 37.7885 17.3402 37.8272 17.503 37.8272C17.7153 37.8272 17.9264 37.7613 18.1046 37.6317C18.4198 37.4027 18.5777 37.0148 18.5117 36.6308L17.7921 32.4351L20.8405 29.4635C21.1195 29.1916 21.2198 28.7849 21.0994 28.4144C20.979 28.0439 20.6588 27.7739 20.2733 27.7179L16.0605 27.1058L14.1765 23.2883C14.004 22.939 13.6482 22.7178 13.2587 22.7178C12.8691 22.7178 12.5133 22.939 12.3409 23.2883L10.4565 27.1056L6.24388 27.7179C5.85853 27.7739 5.53813 28.0441 5.41778 28.4144C5.29742 28.7847 5.39785 29.1915 5.67663 29.4635L8.72574 32.4352ZM11.2839 29.054C11.6171 29.0057 11.9053 28.7962 12.0543 28.4941L13.2589 26.0536L14.4633 28.4941C14.6124 28.7962 14.9005 29.0055 15.2337 29.054L17.9269 29.4453L15.9781 31.3452C15.7368 31.5803 15.6268 31.919 15.6839 32.251L16.1439 34.9332L13.7352 33.6668C13.586 33.5885 13.4225 33.5494 13.2589 33.5494C13.0955 33.5494 12.9318 33.5885 12.7827 33.6668L10.3738 34.9332L10.834 32.2511C10.891 31.919 10.7809 31.5803 10.5398 31.3452L8.59092 29.4453L11.2839 29.054Z" fill="#28418C"/>
<path d="M29.1075 6.78922V8.03328C29.1075 10.9544 31.231 13.3873 34.015 13.8739V16.7445C31.5071 17.1528 29.5189 19.1251 29.0861 21.6247H27.6537C26.3338 21.6247 26.3338 23.6715 27.6537 23.6715H42.3467C43.6667 23.6715 43.6667 21.6247 42.3467 21.6247H40.8725C40.4464 19.1647 38.5138 17.2158 36.062 16.7656V13.8737C38.846 13.3873 40.9695 10.9543 40.9695 8.03315V6.77844C42.276 6.60268 43.3145 6.07787 44.0633 5.21001C45.5785 3.45369 45.2321 0.977842 45.2167 0.873453C45.1422 0.371705 44.7115 0 44.2042 0H39.9459H39.8968H30.1311C30.1264 0 30.1221 0.000682278 30.1174 0.000682278C30.1128 0.000682278 30.1084 0 30.1038 0H25.7963C25.2889 0 24.8583 0.371705 24.7839 0.873453C24.7685 0.977978 24.422 3.45369 25.9372 5.21001C26.7006 6.09507 27.7645 6.62411 29.1075 6.78922ZM38.7799 21.6248H31.1785C31.6302 19.9494 33.163 18.7126 34.9793 18.7126C36.7954 18.7126 38.3282 19.9493 38.7799 21.6248ZM42.5133 3.87302C42.1523 4.29153 41.6348 4.56908 40.9693 4.7039V2.04684H43.1982C43.15 2.6048 42.987 3.32392 42.5133 3.87302ZM31.1544 2.04684H38.9225V5.7033C38.918 5.74233 38.915 5.7819 38.915 5.82229C38.915 5.86268 38.9179 5.90212 38.9225 5.94128V8.03328C38.9225 10.1748 37.1801 11.9172 35.0384 11.9172C32.8968 11.9172 31.1544 10.1748 31.1544 8.03328V2.04684ZM29.1075 2.04684V4.71809C28.4095 4.59037 27.8685 4.31105 27.4942 3.88135C27.0151 3.3317 26.8508 2.6078 26.8024 2.04684H29.1075Z" fill="#28418C"/>
<path d="M68.9093 67.9531H67.3287V54.5433C67.3287 53.0924 66.1486 51.9121 64.6981 51.9121H47.0888C46.8372 51.9121 46.5944 51.9497 46.3638 52.016V30.4091C46.3638 28.9582 45.184 27.7778 43.7337 27.7778H26.1246C24.6744 27.7778 23.4946 28.9582 23.4946 30.4091V41.2875C23.3066 41.2446 23.1119 41.2199 22.9112 41.2199H5.30196C3.85144 41.2199 2.67137 42.4 2.67137 43.8507V51.8513C2.67137 53.1713 4.7182 53.1713 4.7182 51.8513V43.8507C4.7182 43.5288 4.98006 43.2668 5.30196 43.2668H22.911C23.2328 43.2668 23.4945 43.5288 23.4945 43.8507V67.9531H4.7182V56.9002C4.7182 55.5803 2.67137 55.5803 2.67137 56.9002V67.9531H1.0908C0.525465 67.9531 0.0673828 68.4112 0.0673828 68.9765C0.0673828 69.5419 0.525465 70 1.0908 70H68.9093C69.4746 70 69.9327 69.5419 69.9327 68.9765C69.9327 68.4112 69.4745 67.9531 68.9093 67.9531ZM25.5413 67.9531V43.8507V30.4091C25.5413 30.0869 25.8029 29.8247 26.1244 29.8247H43.7337C44.0552 29.8247 44.317 30.0869 44.317 30.4091V67.9533H25.5413V67.9531ZM46.5054 67.9531V54.5433C46.5054 54.2212 46.7672 53.9589 47.0888 53.9589H64.698C65.0199 53.9589 65.2817 54.2212 65.2817 54.5433V67.9531H46.5054Z" fill="#28418C"/>
</g>
<defs>
<clipPath id="clip0_114_870">
<rect width="70" height="70" fill="white"/>
</clipPath>
</defs>
</svg>
