<svg width="72" height="72" viewBox="0 0 72 72" fill="none" xmlns="http://www.w3.org/2000/svg">
<path d="M64.125 38.8462V16.785C67.9354 16.236 70.875 12.9589 70.875 9C70.875 4.65863 67.3425 1.125 63 1.125C58.6575 1.125 55.125 4.65863 55.125 9H1.125V54H34.9324C35.5174 63.4005 43.3305 70.875 52.875 70.875C62.7998 70.875 70.875 62.7998 70.875 52.875C70.875 47.2061 68.2346 42.1481 64.125 38.8462ZM63 3.375C66.1016 3.375 68.625 5.89838 68.625 9C68.625 12.1016 66.1016 14.625 63 14.625C59.8984 14.625 57.375 12.1016 57.375 9C57.375 5.89838 59.8984 3.375 63 3.375ZM3.375 11.25H55.4569C55.7257 12.1477 56.1533 12.9746 56.7023 13.7081L49.8218 20.5886C49.3807 20.3771 48.8947 20.25 48.375 20.25C47.8553 20.25 47.3693 20.3771 46.9294 20.5886L44.6625 18.3217C44.8729 17.8807 45 17.3948 45 16.875C45 15.0142 43.4857 13.5 41.625 13.5C39.7643 13.5 38.25 15.0142 38.25 16.875C38.25 17.3948 38.3771 17.8808 38.5886 18.3206L32.9467 23.9625C32.5057 23.7521 32.0198 23.625 31.5 23.625C29.6392 23.625 28.125 25.1392 28.125 27C28.125 28.8608 29.6392 30.375 31.5 30.375C33.3607 30.375 34.875 28.8608 34.875 27C34.875 26.4802 34.7479 25.9942 34.5364 25.5544L40.1782 19.9125C40.6193 20.1229 41.1053 20.25 41.625 20.25C42.1447 20.25 42.6307 20.1229 43.0706 19.9114L45.3375 22.1783C45.1271 22.6193 45 23.1052 45 23.625C45 25.4858 46.5143 27 48.375 27C50.2357 27 51.75 25.4858 51.75 23.625C51.75 23.1052 51.6229 22.6192 51.4114 22.1794L58.293 15.2989C59.3224 16.0706 60.5441 16.5937 61.875 16.7861V37.3118C59.2234 35.7716 56.1555 34.875 52.875 34.875C47.4975 34.875 42.6758 37.2577 39.375 41.0096V36H32.625V49.5H35.2035C35.064 50.2346 34.9796 50.9873 34.9324 51.75H3.375V11.25ZM48.375 22.5C48.9949 22.5 49.5 23.004 49.5 23.625C49.5 24.246 48.9949 24.75 48.375 24.75C47.7551 24.75 47.25 24.246 47.25 23.625C47.25 23.004 47.7551 22.5 48.375 22.5ZM40.5 16.875C40.5 16.254 41.0051 15.75 41.625 15.75C42.2449 15.75 42.75 16.254 42.75 16.875C42.75 17.496 42.2449 18 41.625 18C41.0051 18 40.5 17.496 40.5 16.875ZM32.625 27C32.625 27.621 32.1199 28.125 31.5 28.125C30.8801 28.125 30.375 27.621 30.375 27C30.375 26.379 30.8801 25.875 31.5 25.875C32.1199 25.875 32.625 26.379 32.625 27ZM52.875 61.875C47.9126 61.875 43.875 57.8374 43.875 52.875C43.875 47.9126 47.9126 43.875 52.875 43.875C57.8374 43.875 61.875 47.9126 61.875 52.875C61.875 57.8374 57.8374 61.875 52.875 61.875ZM37.125 44.1799C36.5861 45.1519 36.1406 46.179 35.7874 47.25H34.875V38.25H37.125V44.1799ZM51.75 37.1824V41.6824C46.0732 42.2494 41.625 47.052 41.625 52.875C41.625 54.5209 41.9895 56.0812 42.6274 57.492L38.7248 59.7454C37.71 57.6664 37.125 55.3399 37.125 52.875C37.125 44.5703 43.5904 37.7629 51.75 37.1824ZM52.875 68.625C47.4593 68.625 42.6735 65.8766 39.8385 61.7006L43.7569 59.4382C45.8021 62.271 49.122 64.125 52.875 64.125C56.628 64.125 59.9479 62.271 61.9931 59.4382L65.9115 61.7006C63.0765 65.8766 58.2907 68.625 52.875 68.625ZM67.0252 59.7454L63.1226 57.492C63.7605 56.0812 64.125 54.5209 64.125 52.875C64.125 47.052 59.6768 42.2482 54 41.6824V37.1824C62.1596 37.7629 68.625 44.5703 68.625 52.875C68.625 55.3399 68.04 57.6664 67.0252 59.7454Z" fill="#28418C"/>
<path d="M52.875 46.125C49.1524 46.125 46.125 49.1524 46.125 52.875C46.125 56.5976 49.1524 59.625 52.875 59.625C56.5976 59.625 59.625 56.5976 59.625 52.875C59.625 49.1524 56.5976 46.125 52.875 46.125ZM52.875 57.375C50.3932 57.375 48.375 55.3568 48.375 52.875C48.375 50.3932 50.3932 48.375 52.875 48.375C55.3568 48.375 57.375 50.3932 57.375 52.875C57.375 55.3568 55.3568 57.375 52.875 57.375Z" fill="#28418C"/>
<path d="M5.625 13.5H7.875V15.75H5.625V13.5Z" fill="#28418C"/>
<path d="M10.125 13.5H25.875V15.75H10.125V13.5Z" fill="#28418C"/>
<path d="M5.625 18H7.875V20.25H5.625V18Z" fill="#28418C"/>
<path d="M10.125 18H25.875V20.25H10.125V18Z" fill="#28418C"/>
<path d="M5.625 22.5H7.875V24.75H5.625V22.5Z" fill="#28418C"/>
<path d="M10.125 22.5H25.875V24.75H10.125V22.5Z" fill="#28418C"/>
<path d="M5.625 27H7.875V29.25H5.625V27Z" fill="#28418C"/>
<path d="M10.125 27H25.875V29.25H10.125V27Z" fill="#28418C"/>
<path d="M5.625 49.5H12.375V38.25H5.625V49.5ZM7.875 40.5H10.125V47.25H7.875V40.5Z" fill="#28418C"/>
<path d="M14.625 49.5H21.375V40.5H14.625V49.5ZM16.875 42.75H19.125V47.25H16.875V42.75Z" fill="#28418C"/>
<path d="M23.625 49.5H30.375V31.5H23.625V49.5ZM25.875 33.75H28.125V47.25H25.875V33.75Z" fill="#28418C"/>
</svg>
