<svg width="32" height="25" viewBox="0 0 32 25" fill="none" xmlns="http://www.w3.org/2000/svg">
<path d="M27.0894 2.04093C25.0498 1.10508 22.8626 0.415598 20.5759 0.0206995C20.5342 0.0130781 20.4926 0.0321244 20.4712 0.0702179C20.1899 0.570505 19.8783 1.22317 19.6601 1.73616C17.2005 1.36794 14.7536 1.36794 12.3444 1.73616C12.1262 1.21177 11.8033 0.570505 11.5208 0.0702179C11.4993 0.0333954 11.4577 0.0143491 11.4161 0.0206995C9.13055 0.414336 6.94341 1.10382 4.90258 2.04093C4.88491 2.04854 4.86977 2.06125 4.85972 2.07775C0.711189 8.27556 -0.425267 14.321 0.13224 20.2916C0.134763 20.3208 0.15116 20.3487 0.173864 20.3665C2.91095 22.3765 5.56228 23.5968 8.16437 24.4056C8.20602 24.4183 8.25014 24.4031 8.27664 24.3688C8.89217 23.5283 9.44086 22.6419 9.9113 21.7099C9.93906 21.6553 9.91256 21.5905 9.85582 21.569C8.98551 21.2388 8.1568 20.8363 7.35964 20.3792C7.29659 20.3424 7.29154 20.2522 7.34954 20.209C7.5173 20.0833 7.68509 19.9525 7.84527 19.8204C7.87425 19.7963 7.91464 19.7912 7.94871 19.8065C13.1857 22.1975 18.8554 22.1975 24.0306 19.8065C24.0647 19.79 24.1051 19.7951 24.1353 19.8192C24.2955 19.9512 24.4633 20.0833 24.6323 20.209C24.6903 20.2522 24.6865 20.3424 24.6235 20.3792C23.8263 20.8452 22.9976 21.2388 22.126 21.5677C22.0693 21.5893 22.044 21.6553 22.0718 21.7099C22.5523 22.6406 23.101 23.5269 23.7052 24.3676C23.7304 24.4031 23.7758 24.4183 23.8175 24.4056C26.4322 23.5968 29.0835 22.3765 31.8206 20.3665C31.8446 20.3487 31.8597 20.322 31.8622 20.2928C32.5294 13.3902 30.7447 7.39435 27.131 2.07901C27.1221 2.06125 27.107 2.04854 27.0894 2.04093ZM10.6934 16.6561C9.11666 16.6561 7.81751 15.2086 7.81751 13.4309C7.81751 11.6532 9.09147 10.2057 10.6934 10.2057C12.3078 10.2057 13.5944 11.6659 13.5692 13.4309C13.5692 15.2086 12.2952 16.6561 10.6934 16.6561ZM21.3263 16.6561C19.7497 16.6561 18.4505 15.2086 18.4505 13.4309C18.4505 11.6532 19.7244 10.2057 21.3263 10.2057C22.9408 10.2057 24.2274 11.6659 24.2022 13.4309C24.2022 15.2086 22.9408 16.6561 21.3263 16.6561Z" fill="white"/>
</svg>
