<svg width="32" height="33" viewBox="0 0 32 33" fill="none" xmlns="http://www.w3.org/2000/svg">
<path d="M16 0.5C7.16352 0.5 0 7.66352 0 16.5C0 24.0034 5.16608 30.2997 12.135 32.029V21.3896H8.83584V16.5H12.135V14.3931C12.135 8.94736 14.5997 6.4232 19.9462 6.4232C20.96 6.4232 22.7091 6.62224 23.4246 6.82064V11.2526C23.047 11.213 22.391 11.1931 21.5763 11.1931C18.953 11.1931 17.9392 12.187 17.9392 14.7707V16.5H23.1654L22.2675 21.3896H17.9392V32.3829C25.8618 31.4261 32.0006 24.6805 32.0006 16.5C32 7.66352 24.8365 0.5 16 0.5Z" fill="white"/>
</svg>
