<svg width="24" height="24" viewBox="0 0 24 24" fill="none" xmlns="http://www.w3.org/2000/svg">
<path fill-rule="evenodd" clip-rule="evenodd" d="M14.1508 23.7188C15.3442 21.9539 15.4541 20.0478 14.4807 18.0003C14.21 19.0988 13.7148 19.7654 12.9951 20.0004C13.6634 18.0917 13.1049 16.0296 11.3196 13.814C11.2811 16.1023 10.7312 17.7691 9.6699 18.8147C8.20787 20.2536 8.22507 21.8775 9.72146 23.6865C3.50968 20.3807 2.63331 15.9471 7.09224 10.3857C7.36881 11.7292 8.03898 12.5541 9.10285 12.8603C7.94321 7.93931 9.16332 3.7463 12.7631 0.28125C12.7853 7.97095 15.1433 8.65444 18.1247 12.087C21.3437 16.2061 19.452 20.9598 14.1508 23.7188Z" fill="url(#paint0_linear_104_784)"/>
<defs>
<linearGradient id="paint0_linear_104_784" x1="19.1957" y1="20.4272" x2="5.48225" y2="6.71384" gradientUnits="userSpaceOnUse">
<stop stop-color="#EF3E3D"/>
<stop offset="1" stop-color="#FFC828"/>
</linearGradient>
</defs>
</svg>
