<svg width="72" height="72" viewBox="0 0 72 72" fill="none" xmlns="http://www.w3.org/2000/svg">
<path d="M15.75 51.75V48.375C16.1714 48.3533 16.5907 48.4465 16.9633 48.6447C17.3358 48.8428 17.6475 49.1385 17.865 49.5C17.9632 49.67 18.1041 49.8114 18.2738 49.9101C18.4436 50.0088 18.6362 50.0613 18.8325 50.0625C19.0246 50.0648 19.2142 50.0179 19.383 49.9262C19.5519 49.8344 19.6944 49.701 19.7971 49.5386C19.8997 49.3761 19.959 49.1901 19.9694 48.9982C19.9798 48.8064 19.9408 48.615 19.8562 48.4425C19.4454 47.7209 18.8466 47.1243 18.1234 46.7162C17.4003 46.3081 16.5801 46.1038 15.75 46.125V45C15.75 44.7016 15.6315 44.4155 15.4205 44.2045C15.2095 43.9935 14.9234 43.875 14.625 43.875C14.3266 43.875 14.0405 43.9935 13.8295 44.2045C13.6185 44.4155 13.5 44.7016 13.5 45V46.125C12.3827 46.0569 11.2835 46.4322 10.4411 47.1693C9.59866 47.9064 9.08085 48.946 9 50.0625C9.08085 51.179 9.59866 52.2186 10.4411 52.9557C11.2835 53.6928 12.3827 54.0681 13.5 54V57.375C13.0786 57.3967 12.6593 57.3035 12.2867 57.1053C11.9142 56.9072 11.6025 56.6115 11.385 56.25C11.2868 56.08 11.1459 55.9386 10.9762 55.8399C10.8064 55.7412 10.6138 55.6887 10.4175 55.6875C10.2254 55.6852 10.0358 55.7321 9.86698 55.8238C9.69813 55.9156 9.55559 56.049 9.45294 56.2114C9.35029 56.3739 9.29096 56.5599 9.28059 56.7518C9.27023 56.9436 9.30919 57.135 9.39375 57.3075C9.80457 58.0291 10.4034 58.6257 11.1266 59.0338C11.8497 59.4419 12.6699 59.6462 13.5 59.625V60.75C13.5 61.0484 13.6185 61.3345 13.8295 61.5455C14.0405 61.7565 14.3266 61.875 14.625 61.875C14.9234 61.875 15.2095 61.7565 15.4205 61.5455C15.6315 61.3345 15.75 61.0484 15.75 60.75V59.625C16.8673 59.6931 17.9665 59.3178 18.8089 58.5807C19.6513 57.8436 20.1692 56.804 20.25 55.6875C20.1692 54.571 19.6513 53.5314 18.8089 52.7943C17.9665 52.0572 16.8673 51.6819 15.75 51.75ZM13.5 51.75C12.285 51.75 11.25 50.9738 11.25 50.0625C11.25 49.1512 12.285 48.375 13.5 48.375V51.75ZM15.75 57.375V54C16.965 54 18 54.7762 18 55.6875C18 56.5988 16.965 57.375 15.75 57.375Z" fill="#28418C"/>
<path d="M65.25 68.625H9C8.37868 68.625 7.875 69.1287 7.875 69.75C7.875 70.3713 8.37868 70.875 9 70.875H65.25C65.8713 70.875 66.375 70.3713 66.375 69.75C66.375 69.1287 65.8713 68.625 65.25 68.625Z" fill="#28418C"/>
<path d="M33.75 48.375C33.75 47.7537 33.2463 47.25 32.625 47.25C32.0037 47.25 31.5 47.7537 31.5 48.375V65.25C31.5 65.8713 32.0037 66.375 32.625 66.375C33.2463 66.375 33.75 65.8713 33.75 65.25V48.375Z" fill="#28418C"/>
<path d="M42.75 55.125C42.75 54.5037 42.2463 54 41.625 54C41.0037 54 40.5 54.5037 40.5 55.125V65.25C40.5 65.8713 41.0037 66.375 41.625 66.375C42.2463 66.375 42.75 65.8713 42.75 65.25V55.125Z" fill="#28418C"/>
<path d="M51.75 55.125C51.75 54.5037 51.2463 54 50.625 54C50.0037 54 49.5 54.5037 49.5 55.125V65.25C49.5 65.8713 50.0037 66.375 50.625 66.375C51.2463 66.375 51.75 65.8713 51.75 65.25V55.125Z" fill="#28418C"/>
<path d="M60.75 47.25C60.75 46.6287 60.2463 46.125 59.625 46.125C59.0037 46.125 58.5 46.6287 58.5 47.25V65.25C58.5 65.8713 59.0037 66.375 59.625 66.375C60.2463 66.375 60.75 65.8713 60.75 65.25V47.25Z" fill="#28418C"/>
<path d="M69.6488 31.5002L58.6125 32.5239C58.4132 32.5432 58.2226 32.6154 58.0605 32.733C57.8984 32.8506 57.7706 33.0093 57.6904 33.1927C57.6101 33.3762 57.5803 33.5778 57.6039 33.7766C57.6276 33.9755 57.7039 34.1644 57.825 34.3239L60.9075 38.3402L46.125 50.3214L42.975 47.9701L42.1875 37.1927C42.1664 36.9607 42.2179 36.7278 42.3347 36.5263C42.4516 36.3248 42.6282 36.1645 42.84 36.0677L56.34 29.3177C57.1948 28.9002 57.8683 28.1858 58.2347 27.308C58.6012 26.4302 58.6355 25.4489 58.3313 24.5477C58.1402 24.0402 57.8508 23.5754 57.4796 23.1801C57.1085 22.7848 56.6629 22.4667 56.1685 22.244C55.674 22.0214 55.1405 21.8986 54.5985 21.8827C54.0565 21.8668 53.5166 21.9581 53.01 22.1514L44.775 25.3239C41.3611 26.6353 37.77 27.4278 34.1213 27.6752C36.1922 27.0565 37.9713 25.7131 39.1334 23.8907C40.2956 22.0683 40.763 19.8886 40.4504 17.7499C40.1377 15.6113 39.0659 13.6566 37.4307 12.2431C35.7956 10.8296 33.7064 10.0518 31.545 10.0518C29.3836 10.0518 27.2944 10.8296 25.6593 12.2431C24.0241 13.6566 22.9523 15.6113 22.6397 17.7499C22.327 19.8886 22.7945 22.0683 23.9566 23.8907C25.1187 25.7131 26.8978 27.0565 28.9688 27.6752C25.3202 27.4266 21.7293 26.6341 18.315 25.3239L10.035 22.2189C9.51301 22.0197 8.9564 21.927 8.39801 21.9463C7.83962 21.9656 7.29074 22.0966 6.78376 22.3314C6.30818 22.5487 5.88156 22.8601 5.52966 23.2468C5.17775 23.6335 4.90785 24.0875 4.73626 24.5814C4.57748 24.9941 4.49735 25.4329 4.50001 25.8752C4.50244 26.6107 4.71567 27.3302 5.11445 27.9483C5.51323 28.5664 6.08083 29.0572 6.75001 29.3627L20.25 36.1126C20.4598 36.2113 20.6339 36.3723 20.7487 36.5736C20.8635 36.775 20.9133 37.0069 20.8913 37.2376L20.6325 40.7927C18.0032 39.4861 15.0196 39.0724 12.1339 39.6141C9.2483 40.1559 6.61794 41.6237 4.64156 43.7949C2.66518 45.9662 1.45053 48.7226 1.18172 51.6463C0.9129 54.57 1.60458 57.5017 3.1519 59.9969C4.69923 62.4922 7.01785 64.4149 9.75632 65.4738C12.4948 66.5327 15.5038 66.6699 18.3273 65.8647C21.1508 65.0595 23.6348 63.3558 25.4029 61.0118C27.1709 58.6677 28.1266 55.8112 28.125 52.8752C28.1273 51.5482 27.9301 50.2285 27.54 48.9602L32.7713 43.1439L45.45 52.6502C45.6448 52.7962 45.8816 52.8752 46.125 52.8752C46.3826 52.8762 46.6328 52.7889 46.8338 52.6277L62.28 40.1177L65.3625 44.1452C65.4685 44.2828 65.6049 44.394 65.761 44.4702C65.9172 44.5463 66.0888 44.5852 66.2625 44.5839H66.4538C66.6559 44.5485 66.8445 44.4586 66.9992 44.3237C67.1538 44.1889 67.2687 44.0143 67.3313 43.8189L70.875 32.9739C70.9319 32.7973 70.9442 32.6093 70.9108 32.4268C70.8775 32.2442 70.7995 32.0727 70.6838 31.9277C70.5636 31.7722 70.4048 31.651 70.2232 31.576C70.0417 31.501 69.8436 31.4748 69.6488 31.5002ZM24.75 19.1252C24.75 17.7901 25.1459 16.4851 25.8876 15.3751C26.6293 14.265 27.6835 13.3999 28.9169 12.889C30.1503 12.3781 31.5075 12.2444 32.8169 12.5049C34.1262 12.7653 35.329 13.4082 36.273 14.3522C37.217 15.2962 37.8599 16.4989 38.1203 17.8083C38.3808 19.1177 38.2471 20.4749 37.7362 21.7083C37.2253 22.9417 36.3601 23.9959 35.2501 24.7376C34.1401 25.4793 32.835 25.8752 31.5 25.8752C29.7098 25.8752 27.9929 25.164 26.727 23.8981C25.4612 22.6323 24.75 20.9154 24.75 19.1252ZM14.625 64.1252C12.4 64.1252 10.2249 63.4654 8.37485 62.2292C6.5248 60.993 5.08285 59.236 4.23137 57.1803C3.37988 55.1247 3.15709 52.8627 3.59118 50.6804C4.02526 48.4981 5.09672 46.4935 6.67006 44.9202C8.2434 43.3469 10.248 42.2754 12.4302 41.8413C14.6125 41.4072 16.8745 41.63 18.9302 42.4815C20.9859 43.333 22.7429 44.7749 23.979 46.625C25.2152 48.475 25.875 50.6501 25.875 52.8752C25.875 54.3525 25.584 55.8154 25.0187 57.1803C24.4533 58.5453 23.6246 59.7854 22.58 60.8301C21.5353 61.8748 20.2951 62.7034 18.9302 63.2688C17.5653 63.8342 16.1024 64.1252 14.625 64.1252ZM39.915 37.3727L40.5675 46.1814L33.3 40.7252C33.0756 40.5575 32.7968 40.4795 32.518 40.5066C32.2392 40.5336 31.9805 40.6637 31.7925 40.8714L26.595 46.6539C25.6565 44.8876 24.3387 43.3509 22.7363 42.1539L23.085 37.4289C23.1337 36.7581 22.9808 36.0881 22.6461 35.5048C22.3113 34.9215 21.81 34.4515 21.2063 34.1552L7.70626 27.4052C7.41404 27.2725 7.16745 27.0565 6.99735 26.7844C6.82726 26.5122 6.74122 26.196 6.75001 25.8752C6.7454 25.69 6.7799 25.506 6.85126 25.3352C6.9259 25.1206 7.04308 24.9233 7.1958 24.7551C7.34852 24.5869 7.53362 24.4513 7.74001 24.3564C8.20809 24.142 8.74206 24.1217 9.22501 24.3002L17.46 27.4727C26.5106 30.9607 36.5344 30.9607 45.585 27.4727L53.8088 24.3114C54.0332 24.2201 54.2735 24.1741 54.5158 24.1762C54.7581 24.1783 54.9975 24.2284 55.2204 24.3236C55.4432 24.4188 55.6449 24.5572 55.8139 24.7308C55.9829 24.9045 56.1159 25.1099 56.205 25.3352C56.3345 25.7202 56.3178 26.1394 56.158 26.5128C55.9983 26.8863 55.7067 27.1879 55.3388 27.3602L41.8388 34.1102C41.2286 34.3991 40.7191 34.8645 40.3761 35.4461C40.0332 36.0277 39.8726 36.6988 39.915 37.3727ZM65.8463 41.0739L60.8513 34.5714L68.1525 33.8964L65.8463 41.0739Z" fill="#28418C"/>
<path d="M10.125 16.875C11.1263 16.875 12.1051 16.5781 12.9376 16.0218C13.7701 15.4655 14.419 14.6749 14.8021 13.7498C15.1853 12.8248 15.2856 11.8069 15.0902 10.8249C14.8949 9.84283 14.4127 8.94078 13.7047 8.23277C12.9967 7.52477 12.0947 7.04261 11.1126 6.84728C10.1306 6.65194 9.11272 6.75219 8.18767 7.13536C7.26261 7.51853 6.47196 8.1674 5.91569 8.99993C5.35941 9.83245 5.0625 10.8112 5.0625 11.8125C5.06547 13.1542 5.59979 14.4402 6.54855 15.3889C7.49731 16.3377 8.78326 16.872 10.125 16.875ZM10.125 9C10.6813 9 11.225 9.16495 11.6875 9.47399C12.1501 9.78304 12.5105 10.2223 12.7234 10.7362C12.9363 11.2501 12.992 11.8156 12.8835 12.3612C12.7749 12.9068 12.5071 13.4079 12.1137 13.8012C11.7204 14.1946 11.2193 14.4624 10.6737 14.571C10.1281 14.6795 9.56262 14.6238 9.0487 14.4109C8.53479 14.198 8.09553 13.8376 7.78649 13.375C7.47745 12.9125 7.3125 12.3688 7.3125 11.8125C7.3125 11.0666 7.60882 10.3512 8.13626 9.82376C8.66371 9.29632 9.37908 9 10.125 9Z" fill="#28418C"/>
<path d="M64.125 22.5C64.125 21.8787 63.6213 21.375 63 21.375C62.3787 21.375 61.875 21.8787 61.875 22.5C61.875 23.1213 62.3787 23.625 63 23.625C63.6213 23.625 64.125 23.1213 64.125 22.5Z" fill="#28418C"/>
<path d="M34.875 1.125H33.75C33.1287 1.125 32.625 1.62868 32.625 2.25C32.625 2.87132 33.1287 3.375 33.75 3.375H34.875C35.4963 3.375 36 2.87132 36 2.25C36 1.62868 35.4963 1.125 34.875 1.125Z" fill="#28418C"/>
<path d="M49.5 16.875C49.5 16.2537 48.9963 15.75 48.375 15.75C47.7537 15.75 47.25 16.2537 47.25 16.875C47.25 17.4963 47.7537 18 48.375 18C48.9963 18 49.5 17.4963 49.5 16.875Z" fill="#28418C"/>
<path d="M64.1251 5.5236C64.0732 5.33049 63.9708 5.15469 63.8285 5.0143C63.6861 4.8739 63.5089 4.77399 63.3151 4.72485L50.5463 1.5411C50.3489 1.48419 50.1397 1.48242 49.9414 1.53596C49.7431 1.58951 49.5632 1.69633 49.4213 1.84485C49.2863 1.98149 49.1886 2.15041 49.1374 2.33552C49.0862 2.52063 49.0832 2.71577 49.1288 2.90235L52.3576 15.6373C52.4067 15.8312 52.5066 16.0084 52.647 16.1507C52.7874 16.2931 52.9632 16.3955 53.1563 16.4473C53.2532 16.4629 53.3519 16.4629 53.4488 16.4473C53.5976 16.4467 53.7449 16.4166 53.882 16.3586C54.0191 16.3007 54.1434 16.2161 54.2476 16.1098L63.7988 6.56985C63.9379 6.43773 64.0408 6.27225 64.0979 6.08914C64.155 5.90602 64.1644 5.71134 64.1251 5.5236ZM54.1126 13.1623L51.8626 4.16235L60.8626 6.41235L54.1126 13.1623Z" fill="#28418C"/>
</svg>
