<svg width="22" height="18" viewBox="0 0 22 18" fill="none" xmlns="http://www.w3.org/2000/svg">
<path fill-rule="evenodd" clip-rule="evenodd" d="M8.20693 3.562C9.48493 2.435 11.1629 1.75 12.9999 1.75C17.0009 1.75 20.2499 4.999 20.2499 9C20.2499 13.001 17.0009 16.25 12.9999 16.25C11.1629 16.25 9.48493 15.565 8.20693 14.438C7.89693 14.164 7.42193 14.193 7.14793 14.504C6.87393 14.814 6.90393 15.288 7.21393 15.562C8.75693 16.924 10.7829 17.75 12.9999 17.75C17.8289 17.75 21.7499 13.829 21.7499 9C21.7499 4.171 17.8289 0.25 12.9999 0.25C10.7829 0.25 8.75693 1.076 7.21393 2.438C6.90393 2.712 6.87393 3.186 7.14793 3.496C7.42193 3.807 7.89693 3.836 8.20693 3.562Z" fill="#595959"/>
<path fill-rule="evenodd" clip-rule="evenodd" d="M11.8501 4.6001V8.6001C11.8501 8.7991 11.9291 8.9901 12.0701 9.1301L15.2701 12.3301C15.5621 12.6231 16.0381 12.6231 16.3301 12.3301C16.6231 12.0381 16.6231 11.5621 16.3301 11.2701L13.3501 8.2891V4.6001C13.3501 4.1861 13.0141 3.8501 12.6001 3.8501C12.1861 3.8501 11.8501 4.1861 11.8501 4.6001Z" fill="#595959"/>
<path fill-rule="evenodd" clip-rule="evenodd" d="M1 6.25H7C7.414 6.25 7.75 5.914 7.75 5.5C7.75 5.086 7.414 4.75 7 4.75H1C0.586 4.75 0.25 5.086 0.25 5.5C0.25 5.914 0.586 6.25 1 6.25Z" fill="#595959"/>
<path fill-rule="evenodd" clip-rule="evenodd" d="M2 9.75H8C8.414 9.75 8.75 9.414 8.75 9C8.75 8.586 8.414 8.25 8 8.25H2C1.586 8.25 1.25 8.586 1.25 9C1.25 9.414 1.586 9.75 2 9.75Z" fill="#595959"/>
<path fill-rule="evenodd" clip-rule="evenodd" d="M3 13.25H9C9.414 13.25 9.75 12.914 9.75 12.5C9.75 12.086 9.414 11.75 9 11.75H3C2.586 11.75 2.25 12.086 2.25 12.5C2.25 12.914 2.586 13.25 3 13.25Z" fill="#595959"/>
</svg>
