<svg width="24" height="24" viewBox="0 0 24 24" fill="none" xmlns="http://www.w3.org/2000/svg">
<path fill-rule="evenodd" clip-rule="evenodd" d="M9.20693 6.562C10.4849 5.435 12.1629 4.75 13.9999 4.75C18.0009 4.75 21.2499 7.999 21.2499 12C21.2499 16.001 18.0009 19.25 13.9999 19.25C12.1629 19.25 10.4849 18.565 9.20693 17.438C8.89693 17.164 8.42193 17.193 8.14793 17.504C7.87393 17.814 7.90393 18.288 8.21393 18.562C9.75693 19.924 11.7829 20.75 13.9999 20.75C18.8289 20.75 22.7499 16.829 22.7499 12C22.7499 7.171 18.8289 3.25 13.9999 3.25C11.7829 3.25 9.75693 4.076 8.21393 5.438C7.90393 5.712 7.87393 6.186 8.14793 6.496C8.42193 6.807 8.89693 6.836 9.20693 6.562Z" fill="white"/>
<path fill-rule="evenodd" clip-rule="evenodd" d="M12.8501 7.6001V11.6001C12.8501 11.7991 12.9291 11.9901 13.0701 12.1301L16.2701 15.3301C16.5621 15.6231 17.0381 15.6231 17.3301 15.3301C17.6231 15.0381 17.6231 14.5621 17.3301 14.2701L14.3501 11.2891V7.6001C14.3501 7.1861 14.0141 6.8501 13.6001 6.8501C13.1861 6.8501 12.8501 7.1861 12.8501 7.6001Z" fill="white"/>
<path fill-rule="evenodd" clip-rule="evenodd" d="M2 9.25H8C8.414 9.25 8.75 8.914 8.75 8.5C8.75 8.086 8.414 7.75 8 7.75H2C1.586 7.75 1.25 8.086 1.25 8.5C1.25 8.914 1.586 9.25 2 9.25Z" fill="white"/>
<path fill-rule="evenodd" clip-rule="evenodd" d="M3 12.75H9C9.414 12.75 9.75 12.414 9.75 12C9.75 11.586 9.414 11.25 9 11.25H3C2.586 11.25 2.25 11.586 2.25 12C2.25 12.414 2.586 12.75 3 12.75Z" fill="white"/>
<path fill-rule="evenodd" clip-rule="evenodd" d="M4 16.25H10C10.414 16.25 10.75 15.914 10.75 15.5C10.75 15.086 10.414 14.75 10 14.75H4C3.586 14.75 3.25 15.086 3.25 15.5C3.25 15.914 3.586 16.25 4 16.25Z" fill="white"/>
</svg>
