<svg width="72" height="72" viewBox="0 0 72 72" fill="none" xmlns="http://www.w3.org/2000/svg">
<g clip-path="url(#clip0_114_892)">
<path d="M46.5357 5.67717C46.2929 5.50688 45.9897 5.44645 45.7007 5.51127C45.4112 5.57609 45.1629 5.75956 45.0157 6.01664C45.0086 6.02928 44.9998 6.04081 44.9921 6.05235C44.6537 6.53575 43.9852 6.6533 43.5018 6.31547C43.0245 5.98149 42.3669 6.09684 42.0329 6.5742L40.496 8.76981C40.162 9.24717 40.2779 9.9047 40.7547 10.2387C40.9392 10.3678 41.1502 10.4298 41.3589 10.4298C41.6913 10.4298 42.0187 10.2727 42.2236 9.97996L43.259 8.50065C44.2313 8.77146 45.2876 8.56272 46.0841 7.9354L47.6398 9.0247C48.1172 9.35868 48.7741 9.24278 49.1087 8.76597C49.4427 8.28861 49.3268 7.63108 48.8494 7.2971L46.5357 5.67717Z" fill="#28418C"/>
<path d="M58.1997 18.9623L57.1643 20.441C56.8303 20.9184 56.9462 21.5759 57.423 21.9099C57.6076 22.039 57.8185 22.1005 58.0273 22.1005C58.3596 22.1005 58.687 21.944 58.8919 21.6506L60.4294 19.4556C60.7634 18.9782 60.6475 18.3207 60.1707 17.9867C59.6873 17.6483 59.5692 16.9798 59.9081 16.4959C59.9164 16.4843 59.924 16.4728 59.9334 16.4623C60.1245 16.2355 60.2119 15.9394 60.1734 15.6455C60.1355 15.3516 59.9757 15.0869 59.7329 14.9171L57.4192 13.2972C56.9418 12.9632 56.2843 13.0791 55.9503 13.5565C55.6158 14.0333 55.7322 14.6914 56.209 15.0253L57.7647 16.1141C57.4472 17.0776 57.6125 18.1411 58.1997 18.9623Z" fill="#28418C"/>
<path d="M52.6025 42.6572C53.1034 42.6572 53.5687 42.8577 53.9126 43.2225C54.3125 43.6454 54.9799 43.6647 55.4034 43.2648C55.8275 42.8649 55.8462 42.1974 55.4463 41.7739C54.7107 40.995 53.6742 40.5479 52.6025 40.5479C50.4459 40.5479 48.6919 42.3024 48.6919 44.459C48.6919 46.615 50.4459 48.3696 52.6025 48.3696C53.6473 48.3696 54.6294 47.9631 55.3677 47.2242C55.7797 46.8122 55.7797 46.1443 55.3677 45.7328C54.9563 45.3209 54.2883 45.3209 53.8763 45.7328C53.5363 46.0729 53.0837 46.2602 52.6025 46.2602C51.6093 46.2602 50.8013 45.4521 50.8013 44.459C50.8013 43.4653 51.6093 42.6572 52.6025 42.6572Z" fill="#28418C"/>
<path d="M61.993 37.0294V28.5821C61.993 25.7141 59.6595 23.3806 56.7916 23.3806H51.1946C51.522 20.5527 50.5986 18.0654 48.6507 16.7014C47.0006 15.5462 44.8626 15.3391 42.6302 16.1181C40.5203 16.8547 38.5576 18.4027 37.1052 20.4769C36.4619 21.3948 35.95 22.3682 35.5786 23.3806H28.7122L43.4712 2.30278L63.9514 16.6427L60.8312 21.0993C60.4973 21.5766 60.6132 22.2342 61.09 22.5681C61.5673 22.9021 62.2249 22.7862 62.5588 22.3089L65.9602 17.4513C66.4727 16.7212 66.2953 15.7099 65.5641 15.1969L44.2798 0.293935C43.926 0.0456438 43.4965 -0.0499372 43.0708 0.0247697C42.645 0.100026 42.2743 0.335683 42.0254 0.689991L37.1436 7.66246V3.45799C37.1436 2.56536 36.4174 1.83916 35.5248 1.83916H10.2277C9.33508 1.83916 8.60888 2.56536 8.60888 3.45799V9.23185C8.60888 9.81468 9.0813 10.2865 9.66357 10.2865C10.2464 10.2865 10.7183 9.81468 10.7183 9.23185V3.94908H13.7741V23.38H10.9671C10.8842 23.38 10.8012 23.3822 10.7183 23.3861V13.4506C10.7183 12.8683 10.2464 12.3959 9.66357 12.3959C9.0813 12.3959 8.60888 12.8683 8.60888 13.4506V23.9464C6.92303 24.8077 5.76562 26.5622 5.76562 28.5821V60.3352C5.76562 63.2032 8.09912 65.5367 10.9671 65.5367H18.8421C19.4249 65.5367 19.8968 65.0649 19.8968 64.482C19.8968 63.8998 19.4249 63.4273 18.8421 63.4273H10.9671C9.26202 63.4273 7.875 62.0403 7.875 60.3352V28.5821C7.875 27.2307 8.74621 26.0794 9.95581 25.6597C9.98272 25.652 10.0096 25.6432 10.0355 25.6333C10.3299 25.5399 10.643 25.4894 10.9676 25.4894H56.7916C58.4966 25.4894 59.8842 26.877 59.8842 28.5821V36.8833H52.3333C48.1563 36.8833 44.7577 40.2814 44.7577 44.4589C44.7577 48.6359 48.1563 52.034 52.3333 52.034H59.8842V60.3352C59.8842 62.0403 58.4966 63.4273 56.7916 63.4273H48.7326C48.1497 63.4273 47.6779 63.8998 47.6779 64.482C47.6779 65.0649 48.1497 65.5367 48.7326 65.5367H56.7916C59.6595 65.5367 61.9936 63.2032 61.9936 60.3352V51.8879C64.3798 51.3215 66.1602 49.1726 66.1602 46.6161V42.3018C66.1596 39.7447 64.3793 37.5958 61.993 37.0294ZM38.8328 21.6876C41.2382 18.2522 45.0999 16.791 47.4411 18.4296C48.7897 19.3739 49.3835 21.2267 49.0676 23.38H37.8583C38.1258 22.7978 38.451 22.2314 38.8328 21.6876ZM35.0343 10.6749L26.1376 23.3806H20.9405V3.94853H35.0343V10.6749ZM15.8835 3.94853H18.8311V23.38H15.8835V3.94853ZM64.0502 46.6155C64.0502 48.4404 62.566 49.9246 60.7412 49.9246H52.3333C49.3192 49.9246 46.8671 47.4725 46.8671 44.4584C46.8671 41.4448 49.3192 38.9927 52.3333 38.9927H60.7412C62.566 38.9927 64.0502 40.4769 64.0502 42.3018V46.6155Z" fill="#28418C"/>
<path d="M33.8791 46.5156C26.8534 46.5156 21.1372 52.2318 21.1372 59.2581C21.1372 66.2839 26.8534 72 33.8791 72C40.9054 72 46.6216 66.2839 46.6216 59.2581C46.6216 52.2318 40.9054 46.5156 33.8791 46.5156ZM33.8791 69.8907C28.0163 69.8907 23.2466 65.121 23.2466 59.2581C23.2466 53.3947 28.0163 48.625 33.8791 48.625C39.7425 48.625 44.5122 53.3947 44.5122 59.2581C44.5122 65.121 39.7425 69.8907 33.8791 69.8907Z" fill="#28418C"/>
<path d="M34.7789 58.2033H32.9799C32.4498 58.2033 32.0186 57.7721 32.0186 57.242C32.0186 56.7119 32.4498 56.2807 32.9799 56.2807H36.4224C37.0047 56.2807 37.4771 55.8083 37.4771 55.226C37.4771 54.6437 37.0047 54.1713 36.4224 54.1713H35.1277V53.2798C35.1277 52.6975 34.6553 52.2251 34.073 52.2251C33.4907 52.2251 33.0183 52.6975 33.0183 53.2798V54.1713H32.9799C31.2869 54.1713 29.9092 55.549 29.9092 57.242C29.9092 58.935 31.2869 60.3127 32.9799 60.3127H34.7789C35.309 60.3127 35.7396 60.7433 35.7396 61.2734C35.7396 61.8035 35.309 62.2347 34.7789 62.2347H31.3363C30.7535 62.2347 30.2816 62.7071 30.2816 63.2894C30.2816 63.8717 30.7535 64.3441 31.3363 64.3441H33.0183V65.2356C33.0183 65.8179 33.4907 66.2903 34.073 66.2903C34.6558 66.2903 35.1277 65.8179 35.1277 65.2356V64.3243C36.657 64.1502 37.8495 62.8489 37.8495 61.2734C37.849 59.5804 36.4719 58.2033 34.7789 58.2033Z" fill="#28418C"/>
</g>
<defs>
<clipPath id="clip0_114_892">
<rect width="72" height="72" fill="white"/>
</clipPath>
</defs>
</svg>
