<svg width="32" height="23" viewBox="0 0 32 23" fill="none" xmlns="http://www.w3.org/2000/svg">
<path d="M31.6812 5.0999C31.6812 5.0999 31.3688 2.89365 30.4063 1.9249C29.1875 0.649902 27.825 0.643652 27.2 0.568652C22.725 0.243652 16.0063 0.243652 16.0063 0.243652H15.9937C15.9937 0.243652 9.275 0.243652 4.8 0.568652C4.175 0.643652 2.8125 0.649902 1.59375 1.9249C0.63125 2.89365 0.325 5.0999 0.325 5.0999C0.325 5.0999 0 7.69365 0 10.2812V12.7062C0 15.2937 0.31875 17.8874 0.31875 17.8874C0.31875 17.8874 0.63125 20.0937 1.5875 21.0624C2.80625 22.3374 4.40625 22.2937 5.11875 22.4312C7.68125 22.6749 16 22.7499 16 22.7499C16 22.7499 22.725 22.7374 27.2 22.4187C27.825 22.3437 29.1875 22.3374 30.4063 21.0624C31.3688 20.0937 31.6812 17.8874 31.6812 17.8874C31.6812 17.8874 32 15.2999 32 12.7062V10.2812C32 7.69365 31.6812 5.0999 31.6812 5.0999ZM12.6938 15.6499V6.65615L21.3375 11.1687L12.6938 15.6499Z" fill="white"/>
</svg>
